<svg width="1024" height="1024" viewBox="0 0 1024 1024" fill="none" xmlns="http://www.w3.org/2000/svg">
<path d="M0.601551 626.345C-0.207815 619.043 0.314344 594.858 0.3036 586.431L0.308606 502.927L0.226965 251.729C0.712584 181.095 25.6726 119.924 76.3532 70.406C108.513 39.1075 148.589 17.167 192.274 6.94194C231.012 -2.01687 265.192 0.250419 304.827 0.269767L416.065 0.274053L776.149 0.256143C842.983 0.87241 906.772 28.3221 953.185 76.4411C971.235 95.0266 986.283 116.307 997.794 139.52C1022.35 189.424 1023.61 222.822 1023.59 276.256L1023.41 341.486C1024.58 369.012 1023.65 403.311 1023.64 431.144L1023.51 599.157L1023.54 714.127C1023.58 752.952 1025.81 791.619 1016.97 829.455C1006.42 874.607 987.279 910.372 956 944.446C911.113 992.723 848.849 1021.11 782.982 1023.32C748.559 1024.7 705.512 1023.56 670.559 1023.55L455.532 1023.54L314.501 1023.53C276.041 1023.51 234.395 1025.81 197.123 1017.93C152.946 1008.7 112.146 987.527 79.1652 956.707C31.033 911.691 2.76393 849.376 0.58437 783.486C-0.989953 738.735 1.21825 692.916 0.3036 648.1C0.163215 641.207 0.138135 633.181 0.601551 626.345Z" fill="black"/>
<path d="M136.562 321.386C126.209 292.689 147.46 262.41 177.955 262.41H217.938C235.97 262.41 252.178 273.416 258.836 290.182L342.634 501.209C357.569 538.818 411.044 538.043 424.883 500.016L469.999 376.044C484.054 337.424 538.649 337.425 552.702 376.046L596.012 495.074C610.065 533.695 664.661 533.696 678.715 495.075L752.841 291.376C759.169 273.985 775.693 262.41 794.192 262.41H844.732C875.227 262.41 896.478 292.689 886.125 321.386L684.912 879.081C670.29 919.609 612.196 917.169 601.021 875.558L553.849 699.918C542.174 656.449 480.527 656.447 468.851 699.916L421.669 875.568C410.493 917.178 352.4 919.616 337.778 879.09L136.562 321.386Z" fill="url(#paint0_linear_4_76)"/>
<path d="M457.948 167.76C478.287 120.417 545.521 119.986 566.265 167.154L648.202 353.462C659.745 379.708 640.531 409.168 611.871 409.168C595.486 409.168 580.785 399.095 574.862 383.811L565.471 359.578C546.179 309.794 475.861 309.541 456.21 359.184L445.833 385.397C440.154 399.745 426.294 409.168 410.87 409.168C382.905 409.168 364.381 379.581 376.009 354.138C400.633 300.257 431.757 228.725 457.948 167.76Z" fill="url(#paint1_linear_4_76)"/>
<defs>
<linearGradient id="paint0_linear_4_76" x1="383.283" y1="101.543" x2="652.218" y2="933.458" gradientUnits="userSpaceOnUse">
<stop stop-color="#2A48E0"/>
<stop offset="1" stop-color="#010162"/>
</linearGradient>
<linearGradient id="paint1_linear_4_76" x1="383.283" y1="101.543" x2="652.218" y2="933.458" gradientUnits="userSpaceOnUse">
<stop stop-color="#2A48E0"/>
<stop offset="1" stop-color="#010162"/>
</linearGradient>
</defs>
</svg>
